<svg width="19" height="14" viewBox="0 0 19 14" fill="none" xmlns="http://www.w3.org/2000/svg">
<path d="M9.52095 12.8682C8.62772 12.8682 7.78234 12.7588 6.98482 12.54C6.18729 12.3213 5.44673 12.0319 4.76314 11.6719C4.07954 11.3118 3.46659 10.9154 2.92427 10.4824C2.38195 10.0495 1.91711 9.61654 1.52974 9.18359C1.14693 8.74609 0.852982 8.34277 0.647903 7.97363C0.442825 7.59993 0.340286 7.29915 0.340286 7.07129C0.340286 6.86621 0.422318 6.60189 0.58638 6.27832C0.755 5.95475 0.996536 5.60156 1.31099 5.21875C1.63 4.83138 2.01509 4.43945 2.46626 4.04297C2.92199 3.64648 3.43697 3.27279 4.01118 2.92188L4.66743 3.58496C4.14335 3.89486 3.67167 4.22526 3.2524 4.57617C2.83312 4.92253 2.47538 5.26204 2.17915 5.59473C1.88749 5.92285 1.66418 6.2168 1.50923 6.47656C1.35428 6.73633 1.27681 6.93457 1.27681 7.07129C1.27681 7.23991 1.37023 7.47689 1.55708 7.78223C1.74849 8.08757 2.02193 8.42708 2.3774 8.80078C2.73286 9.16992 3.15669 9.54362 3.64888 9.92188C4.14562 10.2956 4.69934 10.6419 5.31001 10.9609C5.92525 11.2799 6.58605 11.5374 7.29243 11.7334C7.99881 11.9248 8.74165 12.0205 9.52095 12.0205C10.0405 12.0205 10.5372 11.9749 11.0112 11.8838C11.4897 11.7926 11.9523 11.6719 12.3989 11.5215L13.0961 12.2188C12.5538 12.4193 11.9864 12.5765 11.394 12.6904C10.8015 12.8089 10.1772 12.8682 9.52095 12.8682ZM9.52095 1.27441C10.4187 1.27441 11.2664 1.38379 12.0639 1.60254C12.866 1.82129 13.6066 2.11068 14.2856 2.4707C14.9692 2.83073 15.5821 3.22721 16.1245 3.66016C16.6668 4.0931 17.1293 4.52832 17.5122 4.96582C17.895 5.39876 18.1866 5.80208 18.3872 6.17578C18.5922 6.54492 18.6948 6.84342 18.6948 7.07129C18.6948 7.27181 18.6127 7.53385 18.4487 7.85742C18.2892 8.17643 18.0568 8.52507 17.7514 8.90332C17.4461 9.27702 17.0724 9.65983 16.6303 10.0518C16.1928 10.4437 15.7006 10.8151 15.1538 11.166L14.4975 10.5098C14.9988 10.2044 15.45 9.88314 15.851 9.5459C16.2521 9.20866 16.5939 8.88053 16.8764 8.56152C17.1635 8.23796 17.3823 7.94629 17.5327 7.68652C17.6831 7.42676 17.7583 7.22168 17.7583 7.07129C17.7583 6.9209 17.6626 6.69759 17.4711 6.40137C17.2797 6.10514 17.0063 5.77018 16.6508 5.39648C16.2999 5.01823 15.8784 4.63997 15.3862 4.26172C14.894 3.87891 14.3403 3.52572 13.7251 3.20215C13.1144 2.87858 12.4536 2.61882 11.7426 2.42285C11.0362 2.22233 10.2957 2.12207 9.52095 2.12207C9.01965 2.12207 8.55025 2.16536 8.11275 2.25195C7.67525 2.33398 7.2423 2.44564 6.81392 2.58691L6.11665 1.89648C6.6453 1.70508 7.18534 1.55469 7.73677 1.44531C8.29276 1.33138 8.88749 1.27441 9.52095 1.27441ZM9.52095 10.8926C8.98319 10.8926 8.48189 10.7923 8.01704 10.5918C7.55676 10.3913 7.15116 10.1156 6.80025 9.76465C6.44934 9.41374 6.1759 9.00814 5.97993 8.54785C5.78397 8.08301 5.68371 7.59082 5.67915 7.07129C5.67915 6.73405 5.72017 6.41048 5.8022 6.10059C5.88423 5.79069 6.00044 5.5013 6.15083 5.23242L11.3393 10.4141C11.0659 10.5645 10.7765 10.6829 10.4711 10.7695C10.1658 10.8516 9.84908 10.8926 9.52095 10.8926ZM12.9184 8.77344L7.81197 3.66699C8.06262 3.53483 8.3315 3.43229 8.61861 3.35938C8.91027 3.28646 9.21105 3.25 9.52095 3.25C10.045 3.25 10.5395 3.34798 11.0043 3.54395C11.4692 3.73991 11.8771 4.01335 12.228 4.36426C12.5789 4.71061 12.8523 5.11621 13.0483 5.58105C13.2488 6.04134 13.3491 6.53809 13.3491 7.07129C13.3491 7.37663 13.3103 7.67513 13.2329 7.9668C13.1599 8.25391 13.0551 8.52279 12.9184 8.77344ZM14.9692 12.998L3.38911 1.43164C3.31164 1.35417 3.2729 1.25846 3.2729 1.14453C3.2729 1.0306 3.31164 0.934896 3.38911 0.857422C3.47115 0.775391 3.56913 0.736654 3.68306 0.741211C3.79699 0.741211 3.8927 0.779948 3.97017 0.857422L15.5434 12.4238C15.6209 12.5059 15.6619 12.5993 15.6665 12.7041C15.671 12.8135 15.63 12.9115 15.5434 12.998C15.4614 13.0846 15.3634 13.1257 15.2495 13.1211C15.1401 13.1211 15.0467 13.0801 14.9692 12.998Z" fill="#76778B"/>
</svg>
