<svg width="19" height="12" viewBox="0 0 19 12" fill="none" xmlns="http://www.w3.org/2000/svg">
<path d="M9.52095 11.8682C8.62772 11.8682 7.78234 11.7588 6.98482 11.54C6.18729 11.3213 5.44673 11.0319 4.76314 10.6719C4.07954 10.3118 3.46659 9.91536 2.92427 9.48242C2.38195 9.04948 1.91711 8.61654 1.52974 8.18359C1.14693 7.74609 0.852982 7.34277 0.647903 6.97363C0.442825 6.59993 0.340286 6.29915 0.340286 6.07129C0.340286 5.84342 0.442825 5.54492 0.647903 5.17578C0.852982 4.80208 1.14921 4.39876 1.53658 3.96582C1.92395 3.52832 2.38879 3.0931 2.93111 2.66016C3.47798 2.22721 4.09322 1.83073 4.77681 1.4707C5.4604 1.11068 6.19868 0.821289 6.99165 0.602539C7.78918 0.383789 8.63228 0.274414 9.52095 0.274414C10.4096 0.274414 11.255 0.383789 12.0571 0.602539C12.8592 0.821289 13.5997 1.11068 14.2788 1.4707C14.9624 1.83073 15.5753 2.22721 16.1176 2.66016C16.6599 3.0931 17.1225 3.52832 17.5053 3.96582C17.8881 4.39876 18.1821 4.80208 18.3872 5.17578C18.5922 5.54492 18.6948 5.84342 18.6948 6.07129C18.6948 6.29915 18.5922 6.59993 18.3872 6.97363C18.1866 7.34277 17.895 7.74609 17.5122 8.18359C17.1293 8.61654 16.6668 9.04948 16.1245 9.48242C15.5821 9.91536 14.9692 10.3118 14.2856 10.6719C13.6066 11.0319 12.866 11.3213 12.0639 11.54C11.2664 11.7588 10.4187 11.8682 9.52095 11.8682ZM9.52095 11.0205C10.2911 11.0205 11.0294 10.9248 11.7358 10.7334C12.4422 10.5374 13.1007 10.2799 13.7114 9.96094C14.3266 9.64193 14.8826 9.29557 15.3793 8.92188C15.8761 8.54362 16.2999 8.16992 16.6508 7.80078C17.0063 7.42708 17.2797 7.08757 17.4711 6.78223C17.6626 6.47689 17.7583 6.23991 17.7583 6.07129C17.7583 5.9209 17.6626 5.69759 17.4711 5.40137C17.2797 5.10514 17.0063 4.77018 16.6508 4.39648C16.2999 4.01823 15.8761 3.63997 15.3793 3.26172C14.8826 2.87891 14.3266 2.52572 13.7114 2.20215C13.1007 1.87858 12.4422 1.61882 11.7358 1.42285C11.0294 1.22233 10.2911 1.12207 9.52095 1.12207C8.74165 1.12207 7.99881 1.22233 7.29243 1.42285C6.58605 1.61882 5.92525 1.87858 5.31001 2.20215C4.69934 2.52572 4.14562 2.87891 3.64888 3.26172C3.15669 3.63997 2.73286 4.01823 2.3774 4.39648C2.02193 4.77018 1.74849 5.10514 1.55708 5.40137C1.37023 5.69759 1.27681 5.9209 1.27681 6.07129C1.27681 6.23991 1.37023 6.47689 1.55708 6.78223C1.74849 7.08757 2.02193 7.42708 2.3774 7.80078C2.73286 8.16992 3.15669 8.54362 3.64888 8.92188C4.14562 9.29557 4.69934 9.64193 5.31001 9.96094C5.92525 10.2799 6.58605 10.5374 7.29243 10.7334C7.99881 10.9248 8.74165 11.0205 9.52095 11.0205ZM9.52095 9.89258C8.98319 9.89258 8.48417 9.79232 8.02388 9.5918C7.56359 9.39128 7.15799 9.11556 6.80708 8.76465C6.45617 8.41374 6.18046 8.00814 5.97993 7.54785C5.78397 7.08301 5.68371 6.59082 5.67915 6.07129C5.67915 5.53809 5.77714 5.04134 5.9731 4.58105C6.16906 4.11621 6.4425 3.71061 6.79341 3.36426C7.14888 3.01335 7.55676 2.73991 8.01704 2.54395C8.48189 2.34798 8.98319 2.25 9.52095 2.25C10.045 2.25 10.5395 2.34798 11.0043 2.54395C11.4692 2.73991 11.8771 3.01335 12.228 3.36426C12.5789 3.71061 12.8523 4.11621 13.0483 4.58105C13.2488 5.04134 13.3491 5.53809 13.3491 6.07129C13.3491 6.59082 13.2488 7.08301 13.0483 7.54785C12.8523 8.00814 12.5789 8.41374 12.228 8.76465C11.8771 9.11556 11.4692 9.39128 11.0043 9.5918C10.5395 9.79232 10.045 9.89258 9.52095 9.89258ZM9.52095 7.28809C9.85819 7.28809 10.1453 7.1696 10.3823 6.93262C10.6238 6.69108 10.7446 6.40397 10.7446 6.07129C10.7446 5.73405 10.6238 5.44694 10.3823 5.20996C10.1453 4.97298 9.85819 4.85449 9.52095 4.85449C9.17915 4.85449 8.88749 4.97298 8.64595 5.20996C8.40441 5.44694 8.28365 5.73405 8.28365 6.07129C8.28365 6.40397 8.40441 6.69108 8.64595 6.93262C8.88749 7.1696 9.17915 7.28809 9.52095 7.28809Z" fill="#323452"/>
</svg>
